<svg width="63" height="63" viewBox="0 0 63 63" fill="none" xmlns="http://www.w3.org/2000/svg">
<path d="M6.476 24.9179C5.83544 24.2778 5.38737 23.4708 5.18277 22.5887C4.97818 21.7066 5.02527 20.7848 5.31868 19.9281C5.6121 19.0714 6.14006 18.3143 6.84251 17.7428C7.54496 17.1714 8.39369 16.8085 9.29216 16.6956C9.09133 16.6703 8.88912 16.6573 8.68669 16.6569C7.72953 16.6567 6.79383 16.9405 5.99795 17.4722C5.20208 18.0039 4.58178 18.7598 4.21552 19.6441C3.84926 20.5284 3.75349 21.5015 3.94033 22.4402C4.12718 23.3789 4.58823 24.2412 5.26519 24.9179C5.71352 25.3685 6.24678 25.7258 6.8341 25.969C7.42142 26.2122 8.05114 26.3365 8.68681 26.3347C8.88924 26.3343 9.09145 26.3213 9.29228 26.2959C8.22576 26.1647 7.2341 25.6794 6.476 24.9179Z" fill="#D4E1F4"/>
<path d="M26.5225 4.36011L27.97 6.49535L28.5324 6.11403L26.5225 3.14917L22.382 5.95612L22.9445 6.78574L26.5225 4.36011Z" fill="#D4E1F4"/>
<path d="M58.3408 46.671L58.7404 46.2714C58.8767 46.1352 58.9532 45.9504 58.9532 45.7577C58.9532 45.565 58.8767 45.3802 58.7404 45.2439L57.5101 44.0143L58.1481 43.3763C58.2844 43.24 58.3609 43.0553 58.3609 42.8626C58.3609 42.67 58.2844 42.4852 58.1481 42.3489L49.695 33.896L49.729 33.862C49.8613 33.7249 49.9346 33.5414 49.9329 33.3509C49.9313 33.1604 49.8548 32.9782 49.7201 32.8435C49.5854 32.7087 49.4032 32.6323 49.2127 32.6307C49.0222 32.629 48.8387 32.7023 48.7016 32.8346L48.6676 32.8686L46.6722 30.8732L46.7062 30.8393C46.8407 30.7027 46.9157 30.5185 46.9149 30.3269C46.9142 30.1352 46.8377 29.9516 46.7022 29.816C46.5667 29.6805 46.3831 29.604 46.1914 29.6032C45.9998 29.6024 45.8155 29.6773 45.6789 29.8117L45.6449 29.8458L43.6496 27.8505L43.6835 27.8166C43.8179 27.68 43.893 27.4958 43.8922 27.3041C43.8914 27.1124 43.815 26.9288 43.6795 26.7933C43.5439 26.6577 43.3603 26.5812 43.1687 26.5804C42.977 26.5796 42.7928 26.6546 42.6561 26.789L42.6221 26.823L40.6269 24.8278L40.6608 24.7939C40.7949 24.661 40.8718 24.481 40.8753 24.2922C40.8787 24.1034 40.8084 23.9207 40.6792 23.783C40.55 23.6453 40.3722 23.5635 40.1836 23.5549C39.995 23.5463 39.8104 23.6116 39.6692 23.737L38.0654 21.3438L38.0945 21.3146C38.2163 21.1935 38.2912 21.0332 38.3057 20.8621C38.3203 20.6909 38.2736 20.5202 38.174 20.3803C38.0744 20.2405 37.9284 20.1405 37.7619 20.0983C37.5954 20.056 37.4194 20.0743 37.2652 20.1498L35.6396 17.7242L36.0755 17.2882C36.1445 17.2211 36.1995 17.1409 36.2372 17.0524C36.275 16.9639 36.2947 16.8687 36.2954 16.7725C36.296 16.6762 36.2776 16.5808 36.241 16.4918C36.2045 16.4027 36.1507 16.3218 36.0826 16.2538C36.0146 16.1857 35.9337 16.1319 35.8446 16.0953C35.7556 16.0588 35.6602 16.0403 35.5639 16.041C35.4677 16.0416 35.3726 16.0614 35.284 16.0991C35.1955 16.1368 35.1153 16.1918 35.0482 16.2607L34.8145 16.4943L33.2136 14.1042L33.4184 13.8994C33.5547 13.7632 33.6312 13.5784 33.6312 13.3857C33.6312 13.193 33.5547 13.0081 33.4184 12.8719C33.2822 12.7356 33.0974 12.659 32.9047 12.659C32.712 12.659 32.5272 12.7356 32.3909 12.8718L32.389 12.8739L30.7877 10.4849L30.852 10.4205C30.9768 10.2965 31.0522 10.1312 31.0642 9.95567C31.0761 9.78011 31.0238 9.60621 30.9169 9.4664C30.81 9.3266 30.656 9.23045 30.4834 9.19589C30.3109 9.16134 30.1317 9.19073 29.9792 9.2786L28.878 7.63536L29.9492 6.9088C30.1087 6.80068 30.2187 6.63362 30.255 6.44439C30.2914 6.25515 30.251 6.05923 30.1429 5.89972L27.3176 1.7324C27.264 1.65341 27.1955 1.58573 27.1158 1.53324C27.0361 1.48075 26.9468 1.44447 26.8531 1.42648C26.7594 1.40849 26.663 1.40914 26.5696 1.42838C26.4761 1.44763 26.3874 1.4851 26.3084 1.53865L20.9652 5.16105C20.8057 5.26917 20.6957 5.43622 20.6594 5.62546C20.623 5.8147 20.6634 6.01062 20.7715 6.17012L21.0521 6.5839L19.6231 7.55265C19.4636 7.66077 19.3536 7.82782 19.3173 8.01706C19.281 8.2063 19.3213 8.40222 19.4294 8.56173L19.71 8.9755L16.0368 11.4658C15.9579 11.5193 15.8902 11.5879 15.8377 11.6676C15.7852 11.7473 15.749 11.8365 15.731 11.9302C15.713 12.024 15.7137 12.1203 15.7329 12.2137C15.7521 12.3072 15.7896 12.396 15.8431 12.4749C15.8967 12.5539 15.9653 12.6216 16.045 12.674C16.1246 12.7265 16.2139 12.7628 16.3076 12.7808C16.4013 12.7988 16.4976 12.7981 16.5911 12.7789C16.6846 12.7596 16.7733 12.7222 16.8523 12.6686L20.5254 10.1784L20.8783 10.6992C20.9318 10.7781 21.0004 10.8458 21.0801 10.8983C21.1598 10.9508 21.249 10.9871 21.3427 11.0051C21.4365 11.0231 21.5328 11.0224 21.6263 11.0032C21.7197 10.9839 21.8085 10.9465 21.8875 10.8929L23.3164 9.92415L23.597 10.338C23.7051 10.4976 23.8721 10.6076 24.0614 10.6439C24.2506 10.6802 24.4465 10.6399 24.606 10.5318L25.0541 10.2283L26.32 12.9063C26.2295 13.0114 26.171 13.1403 26.1516 13.2776C26.1322 13.4149 26.1527 13.5549 26.2106 13.681C26.2685 13.807 26.3614 13.9138 26.4782 13.9885C26.595 14.0633 26.7308 14.1029 26.8695 14.1027C26.8746 14.1027 26.8797 14.1014 26.8849 14.1013L28.258 17.0057L28.1917 17.072C28.0786 17.1826 28.005 17.3274 27.982 17.484C27.959 17.6405 27.9881 17.8003 28.0646 17.9388C28.1411 18.0773 28.261 18.1869 28.4058 18.2508C28.5506 18.3147 28.7123 18.3293 28.8662 18.2925L30.1983 21.1107L30.0274 21.2815C29.9065 21.401 29.8314 21.5592 29.8154 21.7285C29.7993 21.8977 29.8432 22.0672 29.9394 22.2073C30.0356 22.3475 30.178 22.4493 30.3417 22.4951C30.5054 22.5409 30.68 22.5277 30.835 22.4578L32.1387 25.2157L31.8634 25.491C31.7343 25.6191 31.6581 25.7911 31.6498 25.9728C31.6416 26.1545 31.7018 26.3327 31.8187 26.472C31.9356 26.6114 32.1006 26.7018 32.2809 26.7252C32.4613 26.7487 32.6439 26.7036 32.7926 26.5988L34.0844 29.3315C33.9861 29.4636 33.9359 29.6254 33.9421 29.79C33.9484 29.9546 34.0108 30.1121 34.1189 30.2364C34.227 30.3606 34.3743 30.4442 34.5365 30.4732C34.6986 30.5022 34.8658 30.4749 35.0103 30.3958L37.0543 32.4398C36.9795 32.5766 36.9509 32.734 36.973 32.8883C36.9951 33.0427 37.0667 33.1857 37.1769 33.296C37.2872 33.4062 37.4302 33.4777 37.5845 33.4998C37.7389 33.5219 37.8963 33.4934 38.033 33.4185L40.0771 35.4626C40.0022 35.5993 39.9737 35.7567 39.9958 35.9111C40.0179 36.0654 40.0894 36.2084 40.1996 36.3187C40.3099 36.429 40.4529 36.5005 40.6073 36.5226C40.7616 36.5447 40.919 36.5162 41.0558 36.4413L43.0998 38.4852C43.0248 38.622 42.9962 38.7794 43.0183 38.9338C43.0403 39.0882 43.1119 39.2312 43.2222 39.3415C43.3325 39.4518 43.4755 39.5234 43.6299 39.5454C43.7844 39.5675 43.9417 39.5389 44.0785 39.4639L52.5564 47.941C52.6927 48.0773 52.8775 48.1538 53.0701 48.1538C53.2628 48.1538 53.4476 48.0773 53.5839 47.941L54.6571 46.8677L55.8865 48.0975C56.0227 48.2337 56.2075 48.3102 56.4002 48.3102C56.5928 48.3102 56.7776 48.2337 56.9138 48.0975L57.3134 47.6979L59.265 49.6494C59.4019 49.7826 59.5857 49.8566 59.7766 49.8553C59.9676 49.854 60.1504 49.7776 60.2855 49.6426C60.4205 49.5075 60.497 49.3247 60.4983 49.1338C60.4996 48.9428 60.4257 48.759 60.2925 48.6221L58.3408 46.671ZM47.64 33.896L44.103 37.433L42.1077 35.4378L45.6447 31.9007L47.64 33.896ZM44.6174 30.8732L41.0803 34.4103L39.0851 32.415L42.6221 28.8776L44.6174 30.8732ZM41.5946 27.8505L38.0576 31.3875L36.0623 29.3923L39.5994 25.8552L41.5946 27.8505ZM38.6194 24.7804L35.1709 28.2288L33.8899 25.5192L37.018 22.3911L38.6194 24.7804ZM21.6735 9.28223L21.0399 8.34787L21.8676 7.78673L22.5012 8.72121L21.6735 9.28223ZM24.3922 8.92137L22.382 5.95651L26.5225 3.14956L28.5326 6.11442L24.3922 8.92137ZM27.6752 8.45129L28.9158 10.3018L27.4087 11.809L26.2712 9.40272L27.6752 8.45129ZM28.0683 13.2047L29.7404 11.5326L31.3416 13.9219L29.3493 15.9143L28.0683 13.2047ZM30.0089 17.3098L32.1663 15.1524L33.7675 17.5417L31.2898 20.0194L30.0089 17.3098ZM31.9494 21.4149L34.5921 18.7721L36.1935 21.1614L33.2298 24.1238L31.9494 21.4149ZM53.0698 46.3999L45.1306 38.4606L48.6675 34.9236L56.6067 42.8629L53.0698 46.3999ZM55.6844 45.8403L56.4827 45.0421L57.1988 45.7581L56.4004 46.5563L55.6844 45.8403Z" fill="#333333"/>
<path d="M43.2948 60.9916C43.3902 60.9918 43.4848 60.973 43.573 60.9365C43.6611 60.9 43.7412 60.8464 43.8086 60.7788L47.9694 56.618C48.1056 56.4817 48.1822 56.2969 48.1822 56.1042C48.1822 55.9115 48.1056 55.7267 47.9694 55.5905L24.8138 32.4348C24.6776 32.2986 24.4928 32.222 24.3001 32.222C24.1074 32.222 23.9226 32.2986 23.7864 32.4348L22.2198 34.0014L13.619 25.401C14.372 24.4496 14.8339 23.3008 14.949 22.093C15.0641 20.8851 14.8275 19.6697 14.2677 18.5933C13.7079 17.5168 12.8487 16.6252 11.7937 16.0259C10.7388 15.4265 9.53301 15.145 8.32172 15.2153C7.11043 15.2855 5.94529 15.7045 4.96668 16.4218C3.98808 17.1391 3.23775 18.124 2.80612 19.258C2.37448 20.3919 2.27995 21.6265 2.5339 22.813C2.78786 23.9994 3.37947 25.0871 4.23746 25.945C5.32833 27.0361 6.78214 27.6882 8.32243 27.7774C9.86272 27.8665 11.382 27.3864 12.5915 26.4285L21.192 35.0291L19.6253 36.596C19.4891 36.7322 19.4125 36.917 19.4125 37.1097C19.4125 37.3024 19.4891 37.4872 19.6253 37.6234L42.7811 60.7788C42.8485 60.8463 42.9286 60.8999 43.0167 60.9365C43.1049 60.973 43.1994 60.9918 43.2948 60.9916ZM5.26506 24.9178C4.47339 24.1263 3.98065 23.0848 3.87079 21.9708C3.76094 20.8567 4.04076 19.7391 4.66259 18.8082C5.28442 17.8773 6.20978 17.1909 7.28099 16.8658C8.35221 16.5407 9.503 16.5971 10.5373 17.0254C11.5716 17.4537 12.4254 18.2273 12.9532 19.2146C13.481 20.2018 13.6502 21.3415 13.4319 22.4394C13.2136 23.5374 12.6214 24.5257 11.7561 25.236C10.8908 25.9462 9.80602 26.3345 8.68657 26.3346C7.40347 26.3341 6.17298 25.8246 5.26519 24.9178H5.26506ZM43.2948 59.2376L38.1241 54.0669L39.2818 48.9579L46.4281 56.1043L43.2948 59.2376ZM35.3753 51.3181L36.5329 46.2092L38.0666 47.7429L36.9089 52.8517L35.3753 51.3181ZM32.6264 48.5692L33.7841 43.4604L35.3187 44.9952L34.1611 50.104L32.6264 48.5692ZM29.8776 45.8204L31.0353 40.7115L32.5703 42.2463L31.4126 47.3552L29.8776 45.8204ZM27.1288 43.0716L28.2864 37.9628L29.8218 39.4975L28.6646 44.6069L27.1288 43.0716ZM24.38 40.3228L25.5376 35.2139L27.0714 36.7477L25.9158 41.8588L24.38 40.3228ZM24.2977 33.974L24.3229 33.9992L23.167 39.11L21.1663 37.1093L24.2977 33.974Z" fill="#89B2C4"/>
<path d="M6.45602 18.6209C6.33594 18.7144 6.22174 18.8153 6.11405 18.9228C5.44454 19.5913 5.06223 20.4946 5.04843 21.4406C5.04697 21.536 5.06432 21.6308 5.09948 21.7195C5.13465 21.8082 5.18694 21.8891 5.25337 21.9576C5.31981 22.026 5.39908 22.0808 5.48667 22.1186C5.57426 22.1565 5.66844 22.1767 5.76385 22.1782H5.77511C5.96591 22.1782 6.14907 22.1032 6.28501 21.9693C6.42096 21.8354 6.49878 21.6534 6.50167 21.4626C6.50911 20.8943 6.73884 20.3514 7.14165 19.9504C7.20686 19.8853 7.27601 19.8242 7.34872 19.7676C7.42401 19.7089 7.48702 19.6361 7.53415 19.5531C7.58127 19.4701 7.6116 19.3787 7.62339 19.284C7.63518 19.1893 7.6282 19.0932 7.60286 19.0013C7.57752 18.9093 7.53431 18.8232 7.47569 18.7479C7.41707 18.6726 7.3442 18.6096 7.26124 18.5625C7.17827 18.5153 7.08684 18.485 6.99215 18.4732C6.89747 18.4614 6.80139 18.4684 6.7094 18.4937C6.61741 18.5191 6.53131 18.5623 6.45602 18.6209Z" fill="#D3CA68"/>
</svg>
