<svg width="51" height="46" viewBox="0 0 51 46" fill="none" xmlns="http://www.w3.org/2000/svg">
<path d="M11.2039 22.3886C13.4227 23.5632 14.6369 24.3011 15.1155 25.0738C15.5572 25.7875 15.4765 26.7468 15.3304 28.4881C15.3048 28.7921 15.2774 29.1177 15.2507 29.4679C15.0342 32.2972 15.1902 35.2182 15.6895 37.6927C16.3125 40.7811 17.4311 43.176 19.0135 44.811C19.3304 45.1351 19.7428 45.3494 20.1902 45.4223C20.6376 45.4952 21.0966 45.423 21.5001 45.2163C21.9035 45.0095 22.2302 44.6791 22.4323 44.2733C22.6345 43.8675 22.7014 43.4077 22.6234 42.9612C22.5704 42.412 21.6532 32.1282 26.0308 26.7996C26.1871 26.6146 26.3821 26.4661 26.6021 26.3646C26.8221 26.2632 27.0616 26.2112 27.3038 26.2124C27.5461 26.2137 27.7851 26.268 28.004 26.3716C28.2229 26.4753 28.4165 26.6257 28.571 26.8123C32.8621 32.1667 31.9594 42.4109 31.9069 42.9616C31.8521 43.2626 31.8647 43.5721 31.9437 43.8677C32.0227 44.1634 32.1661 44.4379 32.3638 44.6715C32.5615 44.9051 32.8084 45.092 33.0869 45.2188C33.3654 45.3456 33.6685 45.4092 33.9745 45.405C34.213 45.405 34.4499 45.3653 34.6754 45.2875C34.9891 45.1962 35.2772 45.033 35.5169 44.811C37.0992 43.176 38.2176 40.7811 38.8409 37.6927C39.3402 35.2181 39.4961 32.2971 39.2798 29.4679C39.2531 29.1193 39.226 28.7951 39.2005 28.4925C39.0541 26.7504 38.9734 25.7907 39.4153 25.0768C39.8932 24.3049 41.1076 23.5656 43.327 22.3875C45.1175 21.4371 46.4486 19.4024 46.979 16.8053C47.4895 14.3057 47.2098 11.5982 46.2115 9.37707C46.1773 9.29916 46.128 9.2288 46.0665 9.17004C46.0049 9.11129 45.9323 9.06531 45.8529 9.03476C45.7735 9.0042 45.6888 8.98968 45.6037 8.99202C45.5187 8.99437 45.4349 9.01353 45.3573 9.04842C45.2797 9.0833 45.2097 9.13321 45.1515 9.19526C45.0933 9.25731 45.0479 9.33029 45.0181 9.40996C44.9882 9.48964 44.9744 9.57444 44.9774 9.65948C44.9805 9.74452 45.0004 9.82811 45.0359 9.90542C45.9258 11.8857 46.1738 14.3066 45.7162 16.5473C45.263 18.7661 44.1718 20.4797 42.7226 21.2489C37.7223 23.9031 37.5737 24.5256 37.9161 28.6C37.9412 28.8997 37.9682 29.2208 37.9946 29.5659C38.5605 36.9665 36.6074 41.8305 34.5938 43.9111C34.4908 43.9821 34.3766 44.0353 34.2559 44.0685C34.0644 44.1399 33.8531 44.1372 33.6636 44.0607C33.474 43.9842 33.32 43.8395 33.2317 43.6551C33.1658 43.5025 33.1474 43.3336 33.1789 43.1704C33.1822 43.1529 33.1848 43.1352 33.1866 43.1174C33.3644 41.0261 33.3625 38.9233 33.1807 36.8323C32.7827 32.1356 31.5696 28.4931 29.5768 26.006C29.3023 25.6697 28.957 25.3982 28.5654 25.2111C28.1738 25.0239 27.7457 24.9256 27.3117 24.9232C26.8776 24.9208 26.4485 25.0145 26.0549 25.1973C25.6612 25.3802 25.3129 25.6479 25.0349 25.9811C23.002 28.4556 21.7638 32.0986 21.3546 36.8094C21.168 38.9079 21.1644 41.0187 21.3439 43.1179C21.3458 43.1355 21.3484 43.153 21.3516 43.1704C21.3831 43.3336 21.3647 43.5025 21.2988 43.655C21.2106 43.8394 21.0565 43.9841 20.867 44.0606C20.6774 44.1372 20.4661 44.1399 20.2746 44.0685C20.1557 44.0347 20.0427 43.9827 19.9398 43.9142C17.9233 41.8304 15.9701 36.9671 16.5359 29.5659C16.5625 29.2192 16.5896 28.8967 16.6149 28.5959C16.9579 24.5193 16.8092 23.8967 11.8074 21.2489C10.4641 20.5377 9.43745 19.1081 8.91683 17.2234C8.4042 15.2989 8.44822 13.2684 9.04379 11.3679C9.67129 9.40424 11.867 4.93346 18.6831 5.83743C20.9106 6.13292 23.7003 7.74388 25.5467 8.80994C26.1019 9.13067 26.5815 9.40757 26.9367 9.58426C28.6517 10.4371 31.2258 11.5137 33.7665 11.018C33.8496 11.0018 33.9287 10.9693 33.9992 10.9226C34.0697 10.8758 34.1304 10.8156 34.1776 10.7454C34.2249 10.6752 34.2579 10.5963 34.2747 10.5134C34.2915 10.4304 34.2918 10.345 34.2756 10.2619C34.2593 10.1789 34.2269 10.0998 34.1802 10.0293C34.1334 9.95872 34.0732 9.89809 34.003 9.85082C33.9328 9.80356 33.8539 9.77058 33.771 9.75378C33.688 9.73698 33.6026 9.73668 33.5195 9.7529C32.1606 10.0181 30.617 9.77384 28.7312 8.98867C29.4563 8.62806 30.1613 8.22833 30.843 7.79125C31.9725 7.09092 32.9483 6.48609 34.864 5.96375C37.5163 5.24087 39.7941 5.33453 41.6348 6.24216C41.7879 6.31664 41.9643 6.32747 42.1254 6.27228C42.2865 6.2171 42.4193 6.10039 42.4946 5.94766C42.5699 5.79493 42.5817 5.61859 42.5274 5.45717C42.4732 5.29575 42.3572 5.16238 42.2049 5.0862C40.0738 4.03507 37.4901 3.91187 34.525 4.72025C32.4279 5.29189 31.3282 5.97385 30.1641 6.69576C29.2601 7.28377 28.3067 7.79202 27.3147 8.21477C27.2768 8.23085 27.2399 8.24899 27.204 8.26912C26.9209 8.11498 26.5754 7.91563 26.1913 7.69382C24.2571 6.57675 21.334 4.88878 18.853 4.55967C13.4543 3.84356 9.32864 6.24238 7.81554 10.976C6.36559 15.5122 7.88568 20.6318 11.2039 22.3886Z" fill="#333333"/>
<path d="M33.6254 8.66277C34.761 7.95868 35.7414 7.35063 37.67 6.82496C39.2811 6.38565 40.7679 6.25664 42.0988 6.42034C40.1887 5.27823 37.68 5.06191 34.765 5.85664C32.8367 6.38232 31.856 6.99037 30.7205 7.69445C29.9994 8.15789 29.2516 8.57831 28.4809 8.95353C29.6195 9.43892 30.6352 9.72947 31.5622 9.83548C32.27 9.48087 32.9586 9.08943 33.6254 8.66277Z" fill="#D4E1F4"/>
<path d="M35.9366 37.8134C35.5392 33.1218 34.3291 29.485 32.3406 27.0038C32.072 26.6703 31.7316 26.4017 31.3448 26.2181C30.9579 26.0345 30.5346 25.9407 30.1064 25.9435C29.8773 25.9437 29.649 25.9707 29.4262 26.024C29.4294 26.028 29.4328 26.0316 29.4359 26.0356C31.4244 28.5168 32.6343 32.1535 33.032 36.845C33.2138 38.9355 33.2158 41.0378 33.0381 43.1286C33.0365 43.1446 33.0341 43.1608 33.0311 43.1764C33 43.3287 33.0107 43.4865 33.062 43.6332C33.1133 43.7799 33.2033 43.91 33.3226 44.0096C33.4418 44.1093 33.5858 44.1749 33.7392 44.1994C33.8927 44.2239 34.0499 44.2065 34.1943 44.1489C34.3241 44.1141 34.4466 44.0561 34.5558 43.9776C35.1554 43.3452 35.6629 42.6314 36.0632 41.8573C36.0914 40.508 36.0491 39.1582 35.9366 37.8134Z" fill="#D4E1F4"/>
<path d="M21.3039 43.1289C21.3027 43.1182 21.2991 43.082 21.2937 43.0241C19.3861 39.592 18.9561 34.5552 19.2644 30.5244C19.2909 30.1768 19.3181 29.8538 19.3435 29.5522C19.5065 27.6136 19.605 26.4434 18.9492 25.384C18.3181 24.3645 17.0316 23.5628 14.562 22.2553C13.2005 21.5346 12.161 20.0883 11.6347 18.1833C11.1179 16.2435 11.1622 14.1968 11.7625 12.2812C12.363 10.4028 13.4673 8.89037 14.9561 7.90756C16.695 6.75987 18.8925 6.35245 21.4881 6.69671C21.5798 6.70885 21.6726 6.72399 21.7658 6.74042C20.6829 6.25213 19.5783 5.8604 18.5832 5.7284C15.9876 5.38468 13.7901 5.79155 12.0512 6.93924C10.5624 7.92206 9.45807 9.43451 8.85754 11.3129C8.25728 13.2285 8.21296 15.2752 8.72972 17.215C9.25603 19.12 10.2956 20.5662 11.6571 21.287C14.1267 22.5944 15.4132 23.3962 16.0442 24.4157C16.7001 25.4751 16.6016 26.6452 16.4385 28.5839C16.4132 28.8855 16.386 29.2085 16.3595 29.5561C15.9867 34.431 16.6914 40.7797 19.787 43.9782C19.8961 44.0561 20.0182 44.1138 20.1476 44.1487C20.3548 44.2257 20.5834 44.2223 20.7882 44.1391C20.993 44.0559 21.1592 43.899 21.254 43.6994C21.3251 43.5347 21.3451 43.3524 21.3111 43.1763C21.3075 43.1606 21.3052 43.1448 21.3039 43.1289Z" fill="#D4E1F4"/>
<path d="M2.87408 32.0168C2.98087 32.0168 3.086 31.9904 3.18002 31.9397C3.27404 31.8891 3.35402 31.8159 3.41275 31.7267C3.78748 31.1545 4.32366 30.7064 4.95333 30.4393C5.583 30.1721 6.27781 30.0979 6.9497 30.2261C7.09608 30.2537 7.24752 30.2298 7.37825 30.1584C7.50899 30.087 7.61095 29.9725 7.66678 29.8344C7.72261 29.6963 7.72887 29.5431 7.6845 29.4008C7.64012 29.2586 7.54785 29.1362 7.42338 29.0543C6.85106 28.6796 6.4029 28.1434 6.13572 27.5136C5.86854 26.8838 5.79437 26.1889 5.92263 25.517C5.95033 25.3706 5.92644 25.2191 5.85502 25.0883C5.78361 24.9575 5.66907 24.8555 5.53092 24.7997C5.39276 24.7438 5.23952 24.7376 5.09728 24.782C4.95505 24.8264 4.83259 24.9187 4.75077 25.0433C4.376 25.6155 3.8398 26.0635 3.21014 26.3306C2.58048 26.5977 1.8857 26.672 1.21382 26.5438C1.06744 26.5162 0.916001 26.5401 0.785266 26.6115C0.654531 26.6829 0.552575 26.7974 0.496743 26.9356C0.44091 27.0737 0.434649 27.2269 0.479024 27.3691C0.523399 27.5113 0.61567 27.6337 0.74014 27.7156C1.31235 28.0903 1.76042 28.6265 2.02755 29.2562C2.29469 29.8858 2.36886 30.5806 2.24068 31.2525C2.22307 31.3456 2.22621 31.4415 2.24988 31.5333C2.27355 31.625 2.31717 31.7104 2.37762 31.7834C2.43808 31.8564 2.51388 31.9151 2.59964 31.9555C2.6854 31.9958 2.77899 32.0167 2.87376 32.0168H2.87408ZM4.64508 26.9917C4.76975 27.6985 5.05353 28.3676 5.47494 28.9484C4.76845 29.0733 4.09958 29.357 3.51887 29.7783C3.39406 29.0718 3.11026 28.4028 2.6889 27.8221C3.39547 27.6971 4.06438 27.4132 4.64508 26.9917Z" fill="#89B2C4"/>
<path d="M49.9319 6.33835C48.7304 6.10024 47.6267 5.51077 46.7606 4.64466C45.8944 3.77854 45.305 2.67477 45.0669 1.47326C45.0376 1.32723 44.9586 1.19584 44.8434 1.10143C44.7282 1.00703 44.5839 0.955444 44.435 0.955444C44.286 0.955444 44.1417 1.00703 44.0265 1.10143C43.9113 1.19584 43.8323 1.32723 43.8031 1.47326C43.565 2.67477 42.9755 3.77854 42.1094 4.64466C41.2432 5.51077 40.1395 6.10024 38.938 6.33835C38.7919 6.36762 38.6605 6.44657 38.5661 6.56177C38.4717 6.67697 38.4202 6.82131 38.4202 6.97025C38.4202 7.11919 38.4717 7.26353 38.5661 7.37873C38.6605 7.49394 38.7919 7.57288 38.938 7.60215C40.1395 7.84025 41.2433 8.42971 42.1094 9.29583C42.9755 10.162 43.565 11.2657 43.8031 12.4672C43.8323 12.6133 43.9113 12.7447 44.0265 12.8391C44.1417 12.9335 44.286 12.9851 44.435 12.9851C44.5839 12.9851 44.7282 12.9335 44.8434 12.8391C44.9586 12.7447 45.0376 12.6133 45.0669 12.4672C45.305 11.2657 45.8944 10.162 46.7605 9.29583C47.6267 8.42971 48.7304 7.84025 49.9319 7.60215C50.078 7.57288 50.2094 7.49394 50.3038 7.37873C50.3982 7.26353 50.4498 7.11919 50.4498 6.97025C50.4498 6.82131 50.3982 6.67697 50.3038 6.56177C50.2094 6.44657 50.078 6.36762 49.9319 6.33835ZM44.435 10.3555C43.7091 8.88588 42.5194 7.69619 41.0498 6.97036C42.5194 6.24454 43.7091 5.0549 44.435 3.58529C45.1608 5.05498 46.3505 6.2447 47.8201 6.97057C46.3505 7.69635 45.1608 8.88596 44.435 10.3555Z" fill="#89B2C4"/>
<path d="M13.0092 36.9383C13.0092 36.7893 12.9576 36.645 12.8631 36.5298C12.7687 36.4146 12.6372 36.3356 12.4912 36.3064C11.4906 36.1081 10.5714 35.6172 9.85008 34.8959C9.12879 34.1746 8.63789 33.2554 8.4396 32.2548C8.41033 32.1087 8.33138 31.9773 8.21618 31.8829C8.10098 31.7885 7.95664 31.7369 7.8077 31.7369C7.65876 31.7369 7.51442 31.7885 7.39922 31.8829C7.28402 31.9773 7.20507 32.1087 7.1758 32.2548C6.97745 33.2553 6.48652 34.1744 5.76524 34.8957C5.04396 35.6169 4.1248 36.1078 3.12424 36.3061C2.97821 36.3354 2.84682 36.4143 2.75242 36.5295C2.65801 36.6447 2.60643 36.7891 2.60643 36.938C2.60643 37.0869 2.65801 37.2313 2.75242 37.3465C2.84682 37.4617 2.97821 37.5406 3.12424 37.5699C4.12484 37.7682 5.04404 38.2591 5.76533 38.9804C6.48661 39.7017 6.97751 40.6209 7.1758 41.6215C7.20507 41.7675 7.28402 41.8989 7.39922 41.9933C7.51442 42.0877 7.65876 42.1393 7.8077 42.1393C7.95664 42.1393 8.10098 42.0877 8.21618 41.9933C8.33138 41.8989 8.41033 41.7675 8.4396 41.6215C8.63789 40.6209 9.12878 39.7017 9.85007 38.9804C10.5714 38.2591 11.4906 37.7682 12.4912 37.5699C12.6372 37.5407 12.7686 37.4618 12.863 37.3467C12.9575 37.2315 13.0091 37.0872 13.0092 36.9383ZM7.8077 39.5966C7.20637 38.4653 6.2806 37.5396 5.14927 36.9383C6.28052 36.3369 7.20626 35.4111 7.8077 34.2799C8.40914 35.4111 9.33488 36.3369 10.4661 36.9383C9.3348 37.5396 8.40903 38.4653 7.8077 39.5966Z" fill="#89B2C4"/>
</svg>
