<svg width="51" height="62" viewBox="0 0 51 62" fill="none" xmlns="http://www.w3.org/2000/svg">
<path d="M34.4339 20.8331C34.4339 20.5522 34.4002 20.2723 34.3336 19.9993C34.224 19.5387 33.9989 19.1136 33.6797 18.7639C33.3604 18.4143 32.9574 18.1516 32.5086 18.0007L32.526 13.1739C32.5326 11.4864 32.2066 9.81421 31.5665 8.25283C30.9265 6.69144 29.985 5.2715 28.7958 4.07417C27.6067 2.87684 26.1933 1.9256 24.6364 1.27482C23.0794 0.624036 21.4095 0.286475 19.722 0.281429C18.0345 0.276384 16.3626 0.603953 14.8018 1.24541C13.241 1.88687 11.8219 2.82965 10.6256 4.01984C9.42938 5.21004 8.47942 6.62432 7.83004 8.18186C7.18067 9.73939 6.84462 11.4096 6.8411 13.0971L6.85362 17.237V17.2545L6.87041 18.0048C6.42433 18.1569 6.02407 18.4196 5.70699 18.7684C5.38991 19.1171 5.16635 19.5404 5.05717 19.9989C4.86448 20.7864 4.95099 21.6162 5.30193 22.347C5.65287 23.0778 6.2465 23.6641 6.98153 24.006L5.77763 28.5296C5.2666 30.4465 5.46107 32.4832 6.32563 34.2688C7.19018 36.0543 8.66731 37.47 10.488 38.2579L4.88454 40.1571C3.59137 40.5949 2.468 41.4271 1.67248 42.5366C0.87696 43.6462 0.449335 44.9772 0.449768 46.3425V55.0464C0.449768 55.2457 0.528961 55.4369 0.669924 55.5779C0.810886 55.7188 1.00207 55.798 1.20142 55.798H28.0838V54.2947H20.4354V48.4245L29.1661 39.9346L31.7695 40.8169L32.2521 39.3931L28.5554 38.1404C30.4047 37.4487 31.9458 36.1188 32.9006 34.3906C33.8555 32.6625 34.1612 30.65 33.7625 28.7163L32.7534 23.8207C33.267 23.5095 33.6915 23.071 33.9859 22.5476C34.2803 22.0242 34.4346 21.4336 34.4339 20.8331ZM19.6839 1.7555C21.179 1.75547 22.6594 2.05114 24.0398 2.62547C25.4202 3.19981 26.6734 4.04148 27.7273 5.10205C28.7811 6.16261 29.6148 7.42113 30.1804 8.80516C30.746 10.1892 31.0322 11.6714 31.0227 13.1665L31.0079 17.2491C27.7432 17.0949 24.6368 15.7965 22.2334 13.5815C23.8463 12.3129 25.4211 10.5576 26.7983 8.11952C26.8485 8.03349 26.8811 7.93834 26.8942 7.8396C26.9074 7.74085 26.9007 7.64049 26.8747 7.54433C26.8487 7.44818 26.8038 7.35815 26.7427 7.27949C26.6816 7.20082 26.6055 7.13509 26.5187 7.08611C26.432 7.03713 26.3364 7.00588 26.2375 6.99417C26.1385 6.98247 26.0383 6.99054 25.9425 7.01792C25.8467 7.0453 25.7574 7.09145 25.6796 7.15367C25.6018 7.2159 25.5372 7.29297 25.4894 7.38039C21.2002 14.9721 15.0201 15.3175 12.0502 15.4834L12.0065 15.4859C11.2977 15.5255 10.6284 16.0259 10.2587 16.7922C10.1509 17.0117 9.97152 17.188 9.75013 17.2918C9.54622 17.3882 9.31754 17.4193 9.09529 17.3809C8.87304 17.3426 8.66805 17.2365 8.50827 17.0774L8.35568 16.9247L8.34441 13.0942C8.34799 10.088 9.54385 7.2059 11.6697 5.08023C13.7955 2.95456 16.6776 1.75889 19.6839 1.7555ZM8.23366 34.5569C7.66405 33.7473 7.279 32.8226 7.10564 31.8479C6.93228 30.8733 6.97484 29.8726 7.23033 28.9162L7.73369 27.0245C8.27518 28.88 9.22748 30.5897 10.5199 32.0269C11.5248 33.1502 12.7377 34.0682 14.0917 34.7303V37.0362L13.05 37.3894C12.0911 37.29 11.1647 36.9856 10.3337 36.4969C9.50264 36.0082 8.78638 35.3466 8.23341 34.5569H8.23366ZM23.7962 37.2636L19.6954 41.3531L15.5949 37.2636V35.3218C16.5825 35.6253 17.6099 35.7796 18.6431 35.7793H20.7477C21.781 35.7795 22.8085 35.6253 23.7962 35.3217V37.2636ZM13.2274 38.9187V38.9167L14.643 38.4372L18.9326 42.7151V46.305L11.8236 39.3925L13.223 38.9182L13.2274 38.9187ZM1.95321 54.2947V46.3425C1.95284 45.2915 2.282 44.2668 2.89436 43.4126C3.50673 42.5585 4.37149 41.9178 5.36697 41.5807L10.2245 39.9343L18.9321 48.4017V54.2946L1.95321 54.2947ZM20.4354 46.3272V42.7383L24.7483 38.4372L27.567 39.3926L20.4354 46.3272ZM30.9496 34.6139C30.3301 35.3916 29.5465 36.023 28.6548 36.4628C27.7631 36.9027 26.7852 37.1403 25.7911 37.1585L25.7918 37.2032L25.2994 37.0362V34.7305C26.6532 34.0684 27.866 33.1505 28.8709 32.0273C30.2716 30.4694 31.2714 28.5933 31.7834 26.5618L32.2904 29.0198C32.4924 29.9934 32.477 30.9997 32.2452 31.9667C32.0134 32.9337 31.571 33.8375 30.9494 34.6137L30.9496 34.6139ZM31.2838 22.796C31.1096 22.8265 30.9517 22.9174 30.8379 23.0529C30.7242 23.1883 30.6618 23.3595 30.6618 23.5364V23.5528C30.6399 26.3134 29.6061 28.97 27.7562 31.0192C26.7055 32.2 25.3896 33.1146 23.9166 33.6876H23.7962V33.7323C22.8198 34.0909 21.7879 34.275 20.7477 34.2763H18.6431C17.603 34.275 16.5712 34.091 15.5949 33.7324V33.6876H15.4741C14.0011 33.1146 12.6851 32.2 11.6345 31.0192C9.7845 28.9701 8.75058 26.3134 8.72875 23.5528V23.5364C8.72876 23.3595 8.6664 23.1883 8.55266 23.0529C8.43892 22.9175 8.28107 22.8265 8.10688 22.796C7.83824 22.7483 7.58223 22.646 7.35468 22.4954C7.12713 22.3449 6.93286 22.1493 6.78388 21.9207C6.6349 21.6921 6.53438 21.4354 6.48852 21.1665C6.44266 20.8975 6.45244 20.622 6.51726 20.357C6.58218 20.0848 6.73249 19.8405 6.94619 19.6598C7.1599 19.4792 7.42579 19.3716 7.705 19.3529C7.86873 19.3378 8.023 19.2695 8.14418 19.1583C8.26535 19.0472 8.34673 18.8994 8.37585 18.7375C8.97954 18.9629 9.6455 18.9554 10.244 18.7166C10.8425 18.4777 11.3306 18.0246 11.6132 17.4456C11.7519 17.1574 11.9629 16.9946 12.0907 16.9874L12.1341 16.9852C14.0169 16.8799 17.4938 16.6845 20.9825 14.4684C23.6939 17.0723 27.263 18.5963 31.019 18.7539C31.0511 18.9121 31.1333 19.0558 31.2534 19.1637C31.3734 19.2716 31.5251 19.3379 31.6858 19.3529C31.965 19.3716 32.2309 19.4792 32.4446 19.6598C32.6583 19.8405 32.8086 20.0848 32.8736 20.357C32.9384 20.622 32.9482 20.8975 32.9023 21.1665C32.8564 21.4354 32.7559 21.6921 32.6069 21.9207C32.458 22.1493 32.2637 22.3449 32.0361 22.4954C31.8086 22.646 31.5526 22.7483 31.2839 22.796H31.2838Z" fill="#333333"/>
<path d="M38.1834 37.3552C35.7573 37.3552 33.3857 38.0746 31.3685 39.4225C29.3513 40.7703 27.7791 42.6861 26.8507 44.9275C25.9223 47.1689 25.6794 49.6352 26.1527 52.0147C26.626 54.3941 27.7943 56.5798 29.5097 58.2953C31.2252 60.0107 33.4109 61.179 35.7903 61.6523C38.1698 62.1256 40.6361 61.8827 42.8775 60.9543C45.1189 60.0259 47.0347 58.4537 48.3825 56.4365C49.7304 54.4193 50.4498 52.0477 50.4498 49.6216C50.4461 46.3695 49.1526 43.2516 46.853 40.952C44.5534 38.6524 41.4355 37.3589 38.1834 37.3552ZM38.1834 60.3847C36.0547 60.3847 33.9737 59.7535 32.2037 58.5708C30.4338 57.3881 29.0542 55.7072 28.2396 53.7405C27.425 51.7738 27.2118 49.6097 27.6271 47.5218C28.0424 45.434 29.0675 43.5162 30.5727 42.011C32.078 40.5057 33.9958 39.4806 36.0836 39.0653C38.1714 38.65 40.3355 38.8632 42.3022 39.6778C44.2689 40.4925 45.9499 41.872 47.1326 43.642C48.3152 45.4119 48.9465 47.4929 48.9465 49.6216C48.9432 52.4752 47.8083 55.2109 45.7905 57.2287C43.7727 59.2465 41.0369 60.3815 38.1834 60.3847Z" fill="#89B2C4"/>
<path d="M43.7716 42.1414C42.8891 41.6963 41.8353 41.6357 40.6388 41.9618C40.0367 42.122 39.465 42.3802 38.9467 42.7259C38.7051 42.8821 38.4536 43.0224 38.1939 43.1461L38.0671 43.0731C37.3422 42.6544 36.2465 42.0216 35.2596 41.8907C34.1003 41.7368 33.0986 41.9326 32.2815 42.4718C31.5519 42.9641 31.0146 43.6932 30.7605 44.5359C30.1605 46.4131 30.802 48.4721 32.2209 49.2233C32.5938 49.4207 33.2881 49.7883 33.4154 49.9937C33.482 50.1016 33.453 50.4505 33.4154 50.8921C33.4061 51.0016 33.3965 51.1193 33.3866 51.2452C33.3145 52.1878 33.2091 55.3965 34.8728 57.1156C35.0148 57.2548 35.188 57.3579 35.378 57.4163C35.585 57.4904 35.8077 57.5092 36.0242 57.4709C36.2407 57.4326 36.4435 57.3385 36.6125 57.1979C36.7815 57.0574 36.911 56.8751 36.9881 56.6692C37.0652 56.4633 37.0873 56.2409 37.0521 56.0239C36.9495 55.005 36.9519 52.127 38.1522 50.6656C38.1656 50.6547 38.1823 50.6488 38.1995 50.6488C38.2167 50.6488 38.2334 50.6547 38.2468 50.6656C39.6179 52.3761 39.3515 55.734 39.325 56.0274C39.2928 56.2437 39.3168 56.4646 39.3949 56.6689C39.4729 56.8732 39.6023 57.0539 39.7706 57.1936C39.9389 57.3333 40.1404 57.4272 40.3555 57.4662C40.5707 57.5053 40.7923 57.4883 40.999 57.4167C41.1891 57.3583 41.3625 57.2552 41.5046 57.116C43.1687 55.3964 43.063 52.1877 42.991 51.2452C42.9813 51.1199 42.9716 51.0028 42.9624 50.8938C42.9248 50.4517 42.896 50.1027 42.9624 49.9951C43.0896 49.7896 43.7841 49.4209 44.1572 49.2229C45.797 48.3526 46.1772 45.8201 45.4927 44.0916C45.181 43.2504 44.5675 42.5553 43.7716 42.1414ZM43.4527 47.8947C41.5599 48.8997 41.3183 49.2793 41.4645 51.0193C41.4733 51.1248 41.4828 51.2379 41.4922 51.3596C41.5945 52.6982 41.4642 54.3592 40.8619 55.4633C40.8987 54.1575 40.7904 51.4344 39.4201 49.7247C39.2737 49.5443 39.0892 49.3986 38.8797 49.298C38.6703 49.1975 38.4411 49.1447 38.2088 49.1433C37.9765 49.142 37.7467 49.1922 37.5361 49.2903C37.3255 49.3885 37.1393 49.5321 36.9909 49.7108C35.5908 51.4146 35.4791 54.1524 35.5159 55.4631C34.9137 54.3593 34.7834 52.6983 34.8856 51.3596C34.895 51.2374 34.9047 51.1239 34.9136 51.0178C34.9762 50.2716 35.0217 49.7323 34.6936 49.2023C34.4011 48.7298 33.9114 48.417 32.9243 47.8943C32.1684 47.4942 31.8263 46.1386 32.1923 44.9933C32.4208 44.2792 33.0976 43.1207 35.0619 43.3808C35.7529 43.4723 36.7311 44.0372 37.3153 44.3747C37.5207 44.4933 37.6982 44.5957 37.8394 44.666C38.5186 45.0042 39.5448 45.4288 40.6056 45.2218C40.7032 45.2037 40.7963 45.1664 40.8794 45.1121C40.9625 45.0578 41.0341 44.9876 41.0899 44.9054C41.1457 44.8233 41.1848 44.731 41.2047 44.6337C41.2246 44.5364 41.2251 44.4362 41.2061 44.3387C41.187 44.2413 41.1489 44.1486 41.0938 44.0659C41.0387 43.9833 40.9678 43.9124 40.8852 43.8574C40.8026 43.8023 40.7099 43.7641 40.6124 43.7451C40.515 43.7261 40.4147 43.7265 40.3175 43.7464C40.2551 43.7585 40.192 43.7665 40.1287 43.7704C40.4142 43.6136 40.7182 43.4932 41.0337 43.412C42.9538 42.8886 43.7579 43.7935 44.0949 44.6448C44.5758 45.8581 44.2575 47.4679 43.4527 47.8947Z" fill="#89B2C4"/>
</svg>
