<svg width="50" height="44" viewBox="0 0 50 44" fill="none" xmlns="http://www.w3.org/2000/svg">
<path d="M24.2409 6.82637L25.0512 7.94685L25.8615 6.82642C26.7278 5.62859 27.7034 4.61193 28.771 3.78609C30.8765 2.1579 33.2488 1.34131 35.8471 1.34131C39.3498 1.34131 42.5574 2.74002 44.8984 5.27913C47.2153 7.79233 48.5151 11.2522 48.5151 15.0451C48.5151 18.8962 47.0935 22.4657 43.8928 26.3276L43.8927 26.3277C40.9985 29.8202 36.8184 33.3864 31.8673 37.6056L31.8672 37.6057L31.8247 37.6419C30.1516 39.0679 28.2535 40.6858 26.2836 42.4085L26.2831 42.4089C25.9433 42.7065 25.5056 42.8712 25.0512 42.8712C24.5968 42.8712 24.1594 42.7067 23.8187 42.4082L23.818 42.4076C21.8337 40.6728 19.9233 39.0445 18.242 37.6115L18.2364 37.6068L18.2363 37.6067C13.2845 33.3869 9.10439 29.8202 6.21012 26.328C3.00932 22.4657 1.5874 18.8961 1.5874 15.0455C1.5874 11.2522 2.88714 7.79234 5.20368 5.27913C7.54472 2.74004 10.7527 1.34131 14.2554 1.34131C16.8537 1.34131 19.2259 2.15791 21.3311 3.78604L21.3311 3.78608C22.399 4.6119 23.375 5.62892 24.2409 6.82637Z" stroke="#89B2C4" stroke-width="2"/>
</svg>
