<svg width="21" height="21" viewBox="0 0 21 21" fill="none" xmlns="http://www.w3.org/2000/svg">
<path d="M10.5865 0.280273C5.07227 0.280273 0.586487 4.76605 0.586487 10.2803C0.586487 15.7945 5.07227 20.2803 10.5865 20.2803C16.1007 20.2803 20.5865 15.7945 20.5865 10.2803C20.5865 4.76605 16.1007 0.280273 10.5865 0.280273ZM15.3423 15.4527C15.1798 15.6152 14.9665 15.697 14.7532 15.697C14.5399 15.697 14.3264 15.6152 14.1641 15.4527L9.99734 11.2861C9.84064 11.1303 9.7532 10.9185 9.7532 10.697V5.28027C9.7532 4.81946 10.1264 4.44699 10.5865 4.44699C11.0465 4.44699 11.4198 4.81946 11.4198 5.28027V10.352L15.3423 14.2744C15.6681 14.6003 15.6681 15.1269 15.3423 15.4527Z" fill="#D8D16F"/>
</svg>
