<svg width="21" height="21" viewBox="0 0 21 21" fill="none" xmlns="http://www.w3.org/2000/svg">
<path d="M20.0211 15.4714L17.2301 12.6804C16.2333 11.6836 14.5387 12.0823 14.14 13.3781C13.8409 14.2753 12.8441 14.7737 11.947 14.5743C9.95338 14.0759 7.262 11.4842 6.7636 9.39091C6.46456 8.49374 7.06264 7.49694 7.95977 7.19793C9.25561 6.79921 9.65434 5.10464 8.65753 4.10784L5.86647 1.31678C5.06903 0.619016 3.87286 0.619016 3.1751 1.31678L1.28117 3.21071C-0.612763 5.20432 1.48053 10.4874 6.16552 15.1724C10.8505 19.8574 16.1336 22.0504 18.1272 20.0567L20.0211 18.1628C20.7189 17.3654 20.7189 16.1692 20.0211 15.4714Z" fill="#D4CA68"/>
</svg>
