<svg width="63" height="63" viewBox="0 0 63 63" fill="none" xmlns="http://www.w3.org/2000/svg">
<path d="M38.692 9.72685C37.6892 9.55067 36.7105 9.25722 35.7762 8.85256C36.5956 8.44482 37.3923 7.99288 38.1627 7.49873C39.4375 6.70823 40.5383 6.02562 42.7011 5.43601C43.5022 5.21455 44.3201 5.05907 45.1466 4.97113C43.6802 4.80487 42.0466 4.9543 40.2792 5.43601C38.1165 6.02562 37.0156 6.70823 35.7409 7.49873C34.9704 7.99263 34.1738 8.44433 33.3543 8.85183C35.4528 9.72685 37.1741 10.0045 38.692 9.72685Z" fill="#D4E1F4"/>
<path d="M16.6777 22.69C15.1613 21.8873 14.0026 20.2735 13.4149 18.1461C12.8363 15.9738 12.886 13.682 13.5582 11.5368C14.1603 9.65321 16.0406 5.72807 21.3116 5.21572C14.1705 4.58604 11.8228 9.38922 11.1363 11.5368C10.4641 13.682 10.4144 15.9738 10.993 18.1461C11.5807 20.2735 12.7395 21.8879 14.2558 22.69C19.9007 25.6786 20.0683 26.3812 19.6815 30.9817C19.673 31.0838 19.6642 31.1882 19.6552 31.2947H22.0771C22.086 31.1881 22.0948 31.0837 22.1034 30.9817C22.4903 26.3812 22.3226 25.6786 16.6777 22.69Z" fill="#D4E1F4"/>
<path d="M29.0738 27.8952C29.1475 27.9558 29.2325 28.0012 29.3238 28.029C29.4151 28.0567 29.5109 28.0662 29.6059 28.0569C29.7008 28.0476 29.793 28.0197 29.8772 27.9747C29.9614 27.9298 30.0359 27.8687 30.0964 27.795C30.2999 27.5539 30.5538 27.3605 30.8402 27.2283C31.1266 27.0961 31.4385 27.0285 31.7539 27.0301C32.0694 27.0316 32.3806 27.1025 32.6656 27.2375C32.9507 27.3726 33.2026 27.5686 33.4036 27.8117C33.5255 27.9574 33.6997 28.0496 33.8888 28.0684C34.0779 28.0873 34.2668 28.0313 34.4151 27.9126C34.5634 27.7938 34.6593 27.6216 34.6822 27.433C34.7051 27.2444 34.6531 27.0543 34.5375 26.9035C34.2013 26.4917 33.7782 26.1593 33.2985 25.93C32.8188 25.7008 32.2943 25.5805 31.7627 25.5776C31.231 25.5747 30.7053 25.6893 30.2231 25.9133C29.741 26.1373 29.3142 26.4651 28.9735 26.8732C28.8514 27.0221 28.7934 27.2133 28.8122 27.405C28.831 27.5966 28.9251 27.7729 29.0738 27.8952Z" fill="#333333"/>
<path d="M24.8348 54.1123C24.7494 54.1553 24.6734 54.2148 24.6111 54.2874C24.5488 54.3599 24.5014 54.444 24.4716 54.5349C24.4419 54.6257 24.4303 54.7216 24.4377 54.8169C24.4451 54.9122 24.4712 55.0052 24.5146 55.0904C24.5579 55.1756 24.6177 55.2515 24.6904 55.3135C24.7631 55.3756 24.8474 55.4227 24.9384 55.4522C25.0293 55.4816 25.1252 55.4928 25.2205 55.4851C25.3158 55.4774 25.4087 55.451 25.4938 55.4074L26.236 55.0297V56.2863C26.236 56.4207 26.2732 56.5524 26.3436 56.6669C26.414 56.7814 26.5148 56.8741 26.6347 56.9347L31.4249 59.3566C31.5256 59.4074 31.6368 59.4342 31.7496 59.4347C31.8624 59.4352 31.9737 59.4095 32.0749 59.3595L36.9721 56.9376C37.0936 56.8776 37.1958 56.7847 37.2673 56.6696C37.3387 56.5545 37.3766 56.4217 37.3766 56.2863V49.3608L39.3262 48.3687C39.4112 48.3254 39.4869 48.2658 39.5489 48.1933C39.6109 48.1207 39.658 48.0367 39.6876 47.946C39.7171 47.8552 39.7284 47.7596 39.721 47.6644C39.7136 47.5693 39.6875 47.4766 39.6442 47.3916C39.6009 47.3065 39.5413 47.2308 39.4688 47.1688C39.3962 47.1068 39.3122 47.0597 39.2215 47.0302C39.1308 47.0007 39.0351 46.9893 38.94 46.9967C38.8448 47.0042 38.7521 47.0303 38.6671 47.0736L37.3766 47.7301V45.0159L39.34 44.0169C39.5118 43.9295 39.6419 43.7774 39.7016 43.5941C39.7613 43.4108 39.7457 43.2113 39.6583 43.0395C39.5709 42.8677 39.4188 42.7376 39.2355 42.6779C39.0522 42.6182 38.8527 42.6338 38.6809 42.7212L37.3766 43.3855V40.6712L39.3537 39.6652C39.5254 39.5778 39.6554 39.4257 39.715 39.2425C39.7747 39.0592 39.7591 38.8598 39.6717 38.6881C39.5843 38.5163 39.4322 38.3863 39.249 38.3267C39.0657 38.2671 38.8663 38.2827 38.6946 38.3701L37.3766 39.0407V35.8518C37.3766 35.6591 37.3 35.4743 37.1638 35.3381C37.0275 35.2018 36.8427 35.1252 36.65 35.1252C36.4573 35.1252 36.2725 35.2018 36.1363 35.3381C36 35.4743 35.9235 35.6591 35.9235 35.8518V39.7802L27.6891 43.9701V35.8518C27.6891 35.6591 27.6125 35.4743 27.4763 35.3381C27.34 35.2018 27.1552 35.1252 26.9625 35.1252C26.7698 35.1252 26.585 35.2018 26.4488 35.3381C26.3125 35.4743 26.236 35.6591 26.236 35.8518V44.7097L24.8622 45.4089C24.7771 45.4522 24.7014 45.5118 24.6394 45.5843C24.5774 45.6569 24.5303 45.7409 24.5008 45.8317C24.4713 45.9224 24.46 46.0181 24.4674 46.1132C24.4749 46.2083 24.501 46.3011 24.5443 46.3861C24.5876 46.4712 24.6472 46.5468 24.7197 46.6088C24.7923 46.6708 24.8763 46.7179 24.9671 46.7474C25.0578 46.777 25.1535 46.7883 25.2486 46.7809C25.3437 46.7734 25.4365 46.7473 25.5215 46.704L26.236 46.3407V49.055L24.8485 49.761C24.6766 49.8484 24.5466 50.0005 24.4869 50.1837C24.4272 50.367 24.4427 50.5665 24.5301 50.7383C24.6175 50.9102 24.7696 51.0402 24.9529 51.0999C25.1361 51.1596 25.3356 51.1441 25.5075 51.0567L26.236 50.6849V53.3993L24.8348 54.1123ZM35.9235 55.8351L31.7564 57.8958L27.6891 55.8393V54.2903L35.9235 50.1004V55.8351ZM27.6891 45.6008L35.9235 41.411V44.1253L27.6891 48.3151V45.6008ZM27.6891 49.9455L35.9235 45.7557V48.4699L27.6891 52.6597V49.9455Z" fill="#89B2C4"/>
<path d="M13.576 23.9744C16.0804 25.3002 17.451 26.1332 17.9912 27.006C18.4898 27.8116 18.3988 28.895 18.2334 30.8599C18.2045 31.2029 18.1737 31.5705 18.1434 31.9658C18.1357 32.0656 18.1488 32.1659 18.1818 32.2604C18.2147 32.355 18.2668 32.4417 18.3348 32.5151C18.4029 32.5885 18.4853 32.6471 18.5771 32.6871C18.6688 32.7272 18.7678 32.7479 18.8679 32.7479H23.8141V35.8518C23.8141 36.0445 23.8906 36.2294 24.0269 36.3656C24.1631 36.5019 24.3479 36.5784 24.5406 36.5784H39.0719C39.2646 36.5784 39.4494 36.5019 39.5856 36.3656C39.7219 36.2294 39.7985 36.0445 39.7985 35.8518V32.7479H44.5382C44.6383 32.7478 44.7373 32.7272 44.829 32.6871C44.9207 32.647 45.0031 32.5885 45.0711 32.515C45.1392 32.4416 45.1913 32.3549 45.2242 32.2604C45.2571 32.1659 45.2702 32.0656 45.2626 31.9658C45.2325 31.5724 45.202 31.2066 45.1731 30.865C45.0079 28.8985 44.9168 27.8152 45.4153 27.0097C45.9547 26.1378 47.3254 25.3036 49.8306 23.974C51.8128 22.9219 53.2569 20.7756 53.8972 17.9305C54.5013 15.2458 54.2828 12.2796 53.2979 9.79224C52.3412 7.37484 50.7292 5.5393 48.6381 4.48421C46.2196 3.26383 43.2786 3.11258 39.8969 4.03447C37.5301 4.67954 36.2883 5.44921 34.9748 6.26405C33.9544 6.92768 32.8783 7.50136 31.7586 7.97861C31.7154 7.9965 31.6733 8.01671 31.6324 8.03916C31.3132 7.86539 30.9226 7.63955 30.49 7.38998C28.3067 6.13036 25.0082 4.22459 22.208 3.8538C16.1162 3.04598 11.4597 5.75291 9.75208 11.0952C8.11574 16.214 9.83103 21.9918 13.576 23.9744ZM38.3453 35.1253H25.2672V32.7479H38.3453V35.1253ZM11.1363 11.5368C11.8449 9.31985 14.3236 4.27387 22.0169 5.29372C24.5312 5.62722 27.68 7.44556 29.7635 8.64887C30.3902 9.01082 30.9315 9.32336 31.3324 9.5228C35.3738 11.533 37.6671 11.4087 39.0404 11.1409C39.1341 11.1226 39.2232 11.086 39.3027 11.0333C39.3822 10.9805 39.4506 10.9127 39.5039 10.8335C39.5572 10.7544 39.5943 10.6655 39.6133 10.572C39.6322 10.4785 39.6326 10.3821 39.6143 10.2885C39.596 10.1948 39.5594 10.1057 39.5067 10.0262C39.454 9.94666 39.3861 9.8783 39.3069 9.82501C39.2278 9.77172 39.1389 9.73455 39.0454 9.71561C38.9519 9.69666 38.8555 9.69633 38.7619 9.71461C37.227 10.0142 35.4847 9.7398 33.3541 8.85218C34.1736 8.44458 34.9704 7.99276 35.7408 7.49872C37.0156 6.70822 38.1165 6.02561 40.2792 5.43601C45.861 3.91471 50.1137 5.69721 51.9471 10.3269C52.8272 12.5494 53.0213 15.2044 52.4799 17.6111C51.9421 20.001 50.7284 21.8522 49.1498 22.6901C43.5068 25.6854 43.339 26.388 43.7248 30.9863C43.7329 31.0868 43.7415 31.1895 43.7506 31.2944H19.6552C19.6641 31.1877 19.6729 31.0834 19.6815 30.9813C20.069 26.3809 19.9007 25.6783 14.2558 22.6897C12.7395 21.887 11.5807 20.2731 10.993 18.1458C10.4145 15.9736 10.4642 13.6819 11.1363 11.5368Z" fill="#333333"/>
</svg>
